<?xml version="1.0" encoding="iso-8859-1"?>
<!-- Generator: Adobe Illustrator 19.0.0, SVG Export Plug-In . SVG Version: 6.00 Build 0)  -->
<svg version="1.1" id="Capa_1" xmlns="http://www.w3.org/2000/svg" xmlns:xlink="http://www.w3.org/1999/xlink" x="0px" y="0px"
	 viewBox="0 0 512 512" style="enable-background:new 0 0 512 512;" xml:space="preserve">
<g>
	<g transform="translate(1 1)">
		<g>
			<path style="fill:#607D8B;" d="M366.019,383H383c9.414,0.028,17.039,7.652,17.067,17.067v51.2
				c-0.028,9.414-7.652,17.039-17.067,17.067H127c-9.414-0.028-17.039-7.652-17.067-17.067v-51.2
				c0.028-9.414,7.652-17.039,17.067-17.067H366.019z"/>
			<path style="fill:#607D8B;" d="M380.44,186.733h19.627c9.414,0.028,17.039,7.652,17.067,17.067
				c-0.068,9.397-7.669,16.999-17.067,17.067H109.933c-9.397-0.068-16.998-7.669-17.067-17.067
				c0.028-9.414,7.652-17.039,17.067-17.067H380.44z"/>
		</g>
		<path style="fill:#C52828;" d="M408.6,101.4v34.133c-0.028,9.414-7.653,17.039-17.067,17.067H383l-2.56,34.133l-2.475,34.133
			l-18.432,249.771c-1.214,17.912-16.095,31.823-34.048,31.829H184.515c-17.953-0.006-32.834-13.917-34.048-31.829l-18.432-249.771
			l-2.475-34.133L127,152.6h-8.533c-9.414-0.028-17.039-7.653-17.067-17.067V101.4c0.028-9.414,7.652-17.039,17.067-17.067H127
			l12.8-31.915c2.569-6.475,8.821-10.733,15.787-10.752h39.68V24.6c0.028-9.414,7.652-17.039,17.067-17.067h85.333
			c9.414,0.028,17.039,7.652,17.067,17.067v17.067h39.68c6.966,0.019,13.218,4.277,15.787,10.752L383,84.333h8.533
			C400.948,84.361,408.573,91.986,408.6,101.4z"/>
		<path style="fill:#F44335;" d="M383,101.4v34.133c-0.028,9.414-7.653,17.039-17.067,17.067H357.4l-2.56,34.133l-2.475,34.133
			l-18.432,249.771c-1.214,17.912-16.095,31.823-34.048,31.829H184.515c-17.953-0.006-32.834-13.917-34.048-31.829l-18.432-249.771
			l-2.475-34.133L127,152.6h-8.533c-9.414-0.028-17.039-7.653-17.067-17.067V101.4c0.028-9.414,7.652-17.039,17.067-17.067H127
			l12.8-31.915c2.569-6.475,8.821-10.733,15.787-10.752h39.68V24.6c0.028-9.414,7.652-17.039,17.067-17.067h59.733
			c9.414,0.028,17.039,7.652,17.067,17.067v17.067h39.68c6.966,0.019,13.218,4.277,15.787,10.752l12.8,31.915h8.533
			C375.348,84.361,382.973,91.986,383,101.4z"/>
		<g>
			<path style="fill:#AD1457;" d="M408.6,118.467v17.067c-0.028,9.414-7.653,17.039-17.067,17.067H118.467
				c-9.414-0.028-17.039-7.653-17.067-17.067v-17.067H408.6z"/>
			<path style="fill:#AD1457;" d="M383,84.333H127l12.8-31.915c2.569-6.475,8.821-10.733,15.787-10.752h198.827
				c6.966,0.019,13.218,4.277,15.787,10.752L383,84.333z"/>
		</g>
		<g>
			<path style="fill:#E91E63;" d="M383,118.467v17.067c-0.028,9.414-7.653,17.039-17.067,17.067H118.467
				c-9.414-0.028-17.039-7.653-17.067-17.067v-17.067H383z"/>
			<path style="fill:#E91E63;" d="M357.4,84.333H127l12.8-31.915c2.569-6.475,8.821-10.733,15.787-10.752h173.227
				c6.966,0.019,13.218,4.277,15.787,10.752L357.4,84.333z"/>
			<path style="fill:#E91E63;" d="M314.733,502.467l-22.547-97.704c-1.787-7.744-8.682-13.229-16.629-13.229h-41.114
				c-7.947,0-14.843,5.485-16.63,13.229l-22.547,97.704H314.733z"/>
		</g>
	</g>
	<path d="M110.933,230.4h14.175l10.706,145.067H128c-14.132,0.015-25.585,11.468-25.6,25.6v51.2
		c0.015,14.132,11.468,25.585,25.6,25.6h15.888c4.04,19.802,21.419,34.052,41.629,34.133h140.967
		c20.212-0.077,37.596-14.329,41.634-34.133H384c14.132-0.015,25.585-11.468,25.6-25.6v-51.2c-0.015-14.132-11.468-25.585-25.6-25.6
		h-7.816L386.889,230.4h14.178c14.111-0.066,25.534-11.489,25.6-25.6c-0.015-14.132-11.468-25.585-25.6-25.6h-10.401l1.259-17.067
		h0.608c14.132-0.015,25.585-11.468,25.6-25.6V102.4c-0.015-14.132-11.468-25.585-25.6-25.6h-2.753l-10.63-26.575
		c-3.861-9.741-13.292-16.125-23.771-16.092h-31.113V25.6c-0.015-14.132-11.468-25.585-25.6-25.6h-85.333
		c-14.132,0.015-25.585,11.468-25.6,25.6v8.533h-31.113c-10.478-0.034-19.909,6.351-23.771,16.092L122.22,76.8h-2.753
		c-14.132,0.015-25.585,11.468-25.6,25.6v34.133c0.015,14.132,11.468,25.585,25.6,25.6h0.617l1.279,17.067h-10.429
		c-14.132,0.015-25.585,11.468-25.6,25.6C85.399,218.911,96.822,230.334,110.933,230.4z M119.467,452.267v-51.2
		c0.006-4.71,3.823-8.527,8.533-8.533h9.075l5.038,68.267H128C123.29,460.794,119.473,456.977,119.467,452.267z M256,401.067h20.558
		c3.978-0.015,7.432,2.733,8.313,6.612l20.134,87.254h-98.01l20.134-87.25c0.878-3.881,4.334-6.631,8.313-6.617H256z M384,392.533
		c4.71,0.006,8.527,3.823,8.533,8.533v51.2c-0.006,4.71-3.823,8.527-8.533,8.533h-14.112l5.037-68.267H384z M401.067,196.267
		c4.71,0.006,8.527,3.823,8.533,8.533c0.007,2.298-0.937,4.497-2.608,6.075c-1.558,1.592-3.698,2.479-5.925,2.458h-12.919
		l1.259-17.067H401.067z M204.8,25.6c0.006-4.71,3.823-8.527,8.533-8.533h85.333c4.71,0.006,8.527,3.823,8.533,8.533v8.533H204.8
		V25.6z M148.7,56.567c1.284-3.249,4.427-5.379,7.921-5.367h198.758c3.493-0.012,6.637,2.118,7.921,5.367l8.096,20.233H140.604
		L148.7,56.567z M110.933,102.4c0.006-4.71,3.823-8.527,8.533-8.533h273.067c4.71,0.006,8.527,3.823,8.533,8.533v8.533H110.933
		V102.4z M110.933,136.533V128h290.133v8.533c-0.006,4.71-3.823,8.527-8.533,8.533H119.467
		C114.756,145.061,110.939,141.244,110.933,136.533z M374.804,162.133l-1.883,25.539l-0.012,0.061l0.006,0.029l-20.893,283.309
		c-0.938,13.42-12.085,23.835-25.537,23.863h-3.96l-21.019-91.092c-2.643-11.639-13.01-19.885-24.946-19.842h-41.117
		c-11.937-0.043-22.305,8.205-24.946,19.846l-21.019,91.088h-3.96c-13.474-0.034-24.628-10.482-25.542-23.925l-18.431-249.743
		l0.002-0.016l-2.475-34.133l-0.005-0.017l0.001-0.004l-1.871-24.963H374.804z M110.933,196.267h11.688l1.237,17.067l-12.925,0
		c-2.3,0.006-4.501-0.939-6.079-2.612c-1.59-1.557-2.476-3.695-2.454-5.921C102.406,200.09,106.223,196.273,110.933,196.267z"/>
</g>
<g>
</g>
<g>
</g>
<g>
</g>
<g>
</g>
<g>
</g>
<g>
</g>
<g>
</g>
<g>
</g>
<g>
</g>
<g>
</g>
<g>
</g>
<g>
</g>
<g>
</g>
<g>
</g>
<g>
</g>
</svg>
