<?xml version="1.0" encoding="iso-8859-1"?>
<!-- Generator: Adobe Illustrator 19.0.0, SVG Export Plug-In . SVG Version: 6.00 Build 0)  -->
<svg version="1.1" id="Capa_1" xmlns="http://www.w3.org/2000/svg" xmlns:xlink="http://www.w3.org/1999/xlink" x="0px" y="0px"
	 viewBox="0 0 512 512" style="enable-background:new 0 0 512 512;" xml:space="preserve">
<g>
	<g>
		<path style="fill:#5E5F62;" d="M370.141,388.414h18.273c9.739,0.029,17.627,7.916,17.655,17.655v52.966
			c-0.029,9.739-7.916,17.627-17.655,17.655H123.586c-9.739-0.029-17.627-7.916-17.655-17.655v-52.966
			c0.029-9.739,7.916-17.627,17.655-17.655H370.141z"/>
		<path style="fill:#5E5F62;" d="M385.766,185.379h20.303c9.739,0.029,17.627,7.916,17.655,17.655
			c-0.07,9.722-7.934,17.585-17.655,17.655H105.931c-9.721-0.071-17.585-7.934-17.655-17.655
			c0.028-9.739,7.916-17.627,17.655-17.655H385.766z"/>
	</g>
	<path style="fill:#4482C3;" d="M397.241,79.448h-8.828l-13.216-33.04c-2.681-6.703-9.173-11.098-16.392-11.098h-41.012V17.655
		C317.793,7.904,309.889,0,300.138,0h-88.276c-9.751,0-17.655,7.904-17.655,17.655V35.31h-41.012
		c-7.219,0-13.711,4.395-16.392,11.098l-13.216,33.04h-8.828c-9.751,0-17.655,7.904-17.655,17.655v35.31
		c0,9.751,7.904,17.655,17.655,17.655h8.828l2.648,35.31l2.56,35.31l19.068,258.383c1.256,18.53,16.65,32.921,35.222,32.927h145.832
		c18.572-0.006,33.966-14.397,35.222-32.927l19.068-258.383l2.56-35.31l2.648-35.31h8.828c9.751,0,17.655-7.904,17.655-17.655
		v-35.31C414.897,87.353,406.992,79.448,397.241,79.448z"/>
	<g>
		<path style="fill:#285680;" d="M97.103,114.759h317.793v17.655c0,9.751-7.904,17.655-17.655,17.655H114.759
			c-9.751,0-17.655-7.904-17.655-17.655V114.759z"/>
		<path style="fill:#285680;" d="M388.414,79.448l-13.216-33.04c-2.681-6.703-9.173-11.098-16.392-11.098H153.195
			c-7.219,0-13.712,4.395-16.393,11.098l-13.216,33.04H388.414z"/>
		<path style="fill:#285680;" d="M317.793,512l-23.325-101.073c-1.849-8.011-8.982-13.685-17.203-13.685h-42.531
			c-8.221,0-15.354,5.675-17.203,13.685L194.207,512H317.793z"/>
	</g>
</g>
<g>
</g>
<g>
</g>
<g>
</g>
<g>
</g>
<g>
</g>
<g>
</g>
<g>
</g>
<g>
</g>
<g>
</g>
<g>
</g>
<g>
</g>
<g>
</g>
<g>
</g>
<g>
</g>
<g>
</g>
</svg>
